<?xml version="1.0" standalone="no"?><!DOCTYPE svg PUBLIC "-//W3C//DTD SVG 1.1//EN" "http://www.w3.org/Graphics/SVG/1.1/DTD/svg11.dtd"><svg t="1499093511270" class="icon" style="" viewBox="0 0 1024 1024" version="1.1" xmlns="http://www.w3.org/2000/svg" p-id="3695" xmlns:xlink="http://www.w3.org/1999/xlink" width="20" height="20"><defs><style type="text/css"></style></defs><path d="M851.119069 430.264441l-0.01228-0.013303c-13.444197-21.620413-36.883025-35.498492-61.196781-36.224016l-164.807556-0.781806 2.050706-5.984295c10.402931-30.02892 15.675004-61.344137 15.675004-93.096305 0-16.129352-1.438769-32.258705-4.374634-49.318242l-2.90005-12.511965c-7.976672-34.573423-38.304398-58.72038-73.776284-58.72038-41.781592 0-75.773777 34.009582-75.773777 75.81778 0 2.379187 0.090051 4.732791 0.305969 6.66991-2.270716 83.10986-99.298564 164.708296-133.431965 164.708296l-117.873618 0.053212c-12.909008 0-23.399943 10.505261-23.399943 23.445992l-0.289596 329.7287c0 12.685927 11.224646 22.564925 26.102495 22.988574l102.022605-0.205685 3.975545 0.667196 2.750647-0.385786 389.410987 0.102331c12.703323-0.899486 25.218358-4.976338 35.887348-11.774161 11.210319-7.194866 20.887726-17.58654 25.236777-27.079752l5.022387-8.376785c26.819832-64.007803 59.873646-263.717264 60.192917-265.697361l0.475837-7.473205C863.656617 460.210473 859.76396 444.132286 851.119069 430.264441zM322.810638 758.480694l-72.848145 0.243547 0.249687-299.021328 72.598458-0.102331L322.810638 758.480694zM823.914474 477.419414l-0.182149 1.213641c-5.628184 33.319873-34.872229 202.116277-56.43329 254.063393l-0.347924 0.681522-3.006474 4.770653c-2.835581 5.785773-7.511067 11.032264-13.294794 14.739702-5.028527 3.206018-11.149944 5.334495-16.366759 5.705955l-372.860033-0.141216L361.423051 457.881428l3.645017-0.717338c61.286832-11.936867 157.258627-107.632369 159.835312-202.998367l-0.282433-4.475941c-0.007163-20.779256 16.661472-37.47245 37.159318-37.47245 17.392112 0 32.261775 11.844769 36.183084 28.808116l2.660596 11.31879c2.407839 14.071484 3.591805 28.01403 3.591805 41.724287 0 27.615964-4.611018 54.833863-13.730723 80.884169l-19.822464 56.831356 210.614835 0.046049 5.606695 0.551562c12.742209 0.455371 24.615631 7.311523 31.455409 18.303878C822.779627 457.831286 824.492642 466.078111 823.914474 477.419414z" fill="#ff5c5c" p-id="3696"></path></svg>