<?xml version="1.0" standalone="no"?><!DOCTYPE svg PUBLIC "-//W3C//DTD SVG 1.1//EN" "http://www.w3.org/Graphics/SVG/1.1/DTD/svg11.dtd"><svg t="1499093440873" class="icon" style="" viewBox="0 0 1024 1024" version="1.1" xmlns="http://www.w3.org/2000/svg" p-id="1773" xmlns:xlink="http://www.w3.org/1999/xlink" width="20" height="20"><defs><style type="text/css"></style></defs><path d="M927.655 200.617l-0.258 1.549a96.164 96.164 0 0 1-0.725 5.283 15.34 15.34 0 0 1-0.508 2.109l-26.375 153.187-0.586-0.157c-2.089 6.405-8.103 11.038-15.206 11.038-8.836 0-16-7.163-16-16 0-2.232 0.46-4.356 1.285-6.286l24.266-140.536a4.663 4.663 0 0 1 0.103-2.057c0.269-0.973 0.507-1.953 0.729-2.936l1.229-7.373c1.977-18.571-4.151-37.841-18.384-52.076-13.395-13.396-31.251-19.61-48.786-18.648l-259.18 43.276 0.008 0.04c-0.198 0.015-0.396 0.039-0.593 0.058l-3.346 0.559c-0.214 0.036-0.426 0.048-0.64 0.075a31.84 31.84 0 0 0-15.596 8.589 32.177 32.177 0 0 0-2.934 3.37l-0.225-0.211L137.38 593.038c-12.498 12.499-12.498 32.763 0 45.262l248.93 248.939c12.498 12.499 32.762 12.499 45.26 0l0.144 0.144c2.935-3.516 7.347-5.755 12.285-5.755 8.836 0 16 7.164 16 16 0 5.151-2.444 9.72-6.224 12.647-25.028 24.582-65.238 24.454-90.095-0.404L114.75 660.93c-24.996-24.997-24.996-65.526 0-90.523l411.712-412.728c10.241-10.241 23.088-16.286 36.406-18.136l0.013 0.064 252.092-42.091-0.016-0.396c29.88-5.351 61.808 3.519 84.9 26.612 20.089 20.089 29.407 46.866 27.97 73.164 0.081 1.22 0.039 2.464-0.172 3.721zM718.817 304.779c-24.996-24.997-24.996-65.526 0-90.523s65.523-24.997 90.52 0c24.996 24.997 24.996 65.526 0 90.523-24.997 24.997-65.524 24.997-90.52 0z m67.89-67.892c-12.498-12.499-32.762-12.499-45.26 0-12.498 12.499-12.498 32.763 0 45.262 12.498 12.499 32.762 12.499 45.26 0 12.498-12.499 12.498-32.764 0-45.262z m59.291 194.74c0-8.837 7.163-16 16-16 8.836 0 16 7.163 16 16s-7.164 16-16 16c-8.837 0-16-7.164-16-16z m-158 16c132.548 0 240 107.452 240 240s-107.452 240-240 240-240-107.452-240-240 107.452-240 240-240z m0 448c114.875 0 208-93.125 208-208s-93.125-208-208-208-208 93.125-208 208 93.125 208 208 208z m-49.094-317.656c28.261 3.15 43.955 19.271 47.102 48.343-3.146 29.883-18.841 45.984-47.102 48.343-28.261-2.358-43.569-18.46-45.924-48.343 2.355-29.072 17.663-45.192 45.924-48.343z m0 66.029c10.193 0 15.694-5.895 16.485-17.686-0.791-10.999-6.292-16.894-16.485-17.686-10.212 0.792-15.308 6.688-15.308 17.686 0 11.791 5.097 17.686 15.308 17.686z m89.493-58.954c2.355-6.282 7.065-9.433 14.13-9.433 10.193 1.584 16.081 7.075 17.663 16.507 0 3.15-0.791 6.301-2.355 9.433L656.567 791.386l-1.178 1.18c-3.937 4.716-8.243 7.074-12.953 7.074-10.211-2.358-15.713-7.075-16.486-14.149 0-4.716 0.773-8.641 2.355-11.791l100.092-188.654z m16.486 116.73c28.261 3.15 43.955 19.658 47.102 49.522-3.146 29.09-18.841 44.419-47.102 45.984-28.261-1.566-43.569-16.894-45.924-45.984 2.355-29.865 17.663-46.372 45.924-49.522z m0 67.208c10.193 0 15.694-5.896 16.485-17.686-1.582-11.791-7.065-18.073-16.485-18.865-9.42 1.584-14.535 7.867-15.308 18.865 0 11.79 5.096 17.686 15.308 17.686z" p-id="1774"></path></svg>