<?xml version="1.0" encoding="utf-8"?>
<!-- Generator: Adobe Illustrator 16.0.0, SVG Export Plug-In . SVG Version: 6.00 Build 0)  -->
<!DOCTYPE svg PUBLIC "-//W3C//DTD SVG 1.1//EN" "http://www.w3.org/Graphics/SVG/1.1/DTD/svg11.dtd">
<svg version="1.1" id="图层_1" xmlns="http://www.w3.org/2000/svg" xmlns:xlink="http://www.w3.org/1999/xlink" x="0px" y="0px"
	 width="20px" height="20px" viewBox="0 0 20 20" enable-background="new 0 0 20 20" xml:space="preserve">
<rect fill="#3CABFF" width="20" height="20"/>
<path fill="#FFFFFF" d="M10.493,16.416c-2.656,0.141-4.993-1.432-6.011-3.578c-1.119-2.356-0.908-4.686,0.69-6.762
	c1.521-1.979,3.641-2.765,6.148-2.47c1.245,0.146,2.344,0.65,3.299,1.448c0.521,0.434,0.508,0.628-0.067,0.952
	c-0.499,0.282-1.003,0.56-1.501,0.848c-1.375,0.793-2.76,1.573-4.12,2.391c-0.729,0.438-0.873,1.139-0.467,1.864
	c0.439,0.785,1.294,0.967,2.199,0.452c2.688-1.529,5.366-3.074,8.062-4.588c0.447-0.251,0.494-0.505,0.297-0.93
	c-0.697-1.494-1.725-2.721-3.1-3.64C12.882,0.376,9.637,0.05,6.315,1.592C3.001,3.13,1.199,5.829,0.901,9.388
	c-0.247,2.95,0.894,5.448,3.056,7.503c3.018,2.866,8.058,3.315,11.524,1.013c0.902-0.601,0.902-0.601,0.342-1.516
	c-0.604-0.991-1.204-1.174-2.256-0.68C12.575,16.178,11.545,16.481,10.493,16.416L10.493,16.416z"/>
</svg>
