<?xml version="1.0" encoding="utf-8"?>
<!-- Generator: Adobe Illustrator 16.0.0, SVG Export Plug-In . SVG Version: 6.00 Build 0)  -->
<!DOCTYPE svg PUBLIC "-//W3C//DTD SVG 1.1//EN" "http://www.w3.org/Graphics/SVG/1.1/DTD/svg11.dtd">
<svg version="1.1" xmlns="http://www.w3.org/2000/svg" xmlns:xlink="http://www.w3.org/1999/xlink" x="0px" y="0px" width="20px"
	 height="20px" viewBox="0 0 20 20" enable-background="new 0 0 20 20" xml:space="preserve">
<g id="图层_2">
	<rect fill="#FC7B53" width="20" height="20"/>
</g>
<g id="图层_1">
	<path fill="#FFFFFF" d="M16.125,17.75H3.875c-0.45,0-0.875-0.175-1.175-0.5c-0.3-0.325-0.45-0.75-0.425-1.2l0.7-12.175
		c0.05-0.9,0.825-1.6,1.75-1.6H15.25c0.925,0,1.7,0.7,1.75,1.6l0.75,12.175c0.025,0.45-0.125,0.875-0.425,1.2
		C17,17.575,16.6,17.75,16.125,17.75z M4.7,2.75c-0.65,0-1.2,0.5-1.25,1.15l-0.7,12.175c-0.025,0.325,0.1,0.6,0.3,0.825
		c0.2,0.225,0.5,0.35,0.825,0.35H16.15c0.324,0,0.6-0.125,0.824-0.35c0.2-0.226,0.325-0.525,0.301-0.825L16.525,3.9
		C16.45,3.25,15.9,2.75,15.25,2.75H4.7z M10,8.4c-1.775,0-3.225-1.45-3.225-3.225c0-0.15,0.1-0.25,0.25-0.25s0.25,0.1,0.25,0.25
		C7.275,6.675,8.5,7.9,10,7.9s2.725-1.225,2.725-2.725c0-0.15,0.101-0.25,0.25-0.25c0.15,0,0.25,0.1,0.25,0.25
		C13.225,6.95,11.775,8.4,10,8.4z"/>
</g>
</svg>
