<?xml version="1.0" encoding="utf-8"?>
<!-- Generator: Adobe Illustrator 16.0.0, SVG Export Plug-In . SVG Version: 6.00 Build 0)  -->
<!DOCTYPE svg PUBLIC "-//W3C//DTD SVG 1.1//EN" "http://www.w3.org/Graphics/SVG/1.1/DTD/svg11.dtd">
<svg version="1.1" id="图层_2" xmlns="http://www.w3.org/2000/svg" xmlns:xlink="http://www.w3.org/1999/xlink" x="0px" y="0px"
	 width="20px" height="20px" viewBox="0 0 20 20" enable-background="new 0 0 20 20" xml:space="preserve">
<g id="图层_1">
	<path fill="#4AA5F0" d="M17.779,18.508c-3.402-1.378-5.834-0.313-7.369,0.557v-3.186c2.999-0.168,5.887-1.863,7.285-4.309
		c1.688-2.633,2.402-6.625,1.22-9.017c-0.114-0.222-1.03-0.271-2.217-0.271c-0.988,0-2.175,0.171-2.952,0.622
		c-1.072-1.793-2.035-2.324-3.08-2.767C10.405,0.007,9.983,0,9.897,0C9.616,0,9.375,0.046,9.218,0.121
		C7.954,0.596,7.007,1.225,6.078,2.9C5.286,2.45,4.11,2.279,3.139,2.279c-1.182,0-1.879,0.222-2.077,0.665
		c-1.047,2.444-0.601,5.992,1.075,8.607c1.409,2.463,4.725,4.159,7.725,4.327v3.187c-1.535-0.869-4.822-1.935-8.226-0.558
		c-0.256,0.104-0.365-0.022-0.245,0.222l0.001,0.002c0.115,0.234,0.399,0.332,0.646,0.231c3.654-1.466,6.577,0.224,7.569,0.931
		C9.699,19.963,9.81,20,9.922,20c0.112,0,0.223-0.037,0.313-0.107c0.994-0.707,3.916-2.396,7.57-0.931
		c0.247,0.099,0.53,0.003,0.646-0.231l0.002-0.002c0.12-0.244,0.012-0.117-0.245-0.222L17.779,18.508L17.779,18.508z"/>
</g>
</svg>
