<?xml version="1.0" encoding="utf-8"?>
<!-- Generator: Adobe Illustrator 16.0.0, SVG Export Plug-In . SVG Version: 6.00 Build 0)  -->
<!DOCTYPE svg PUBLIC "-//W3C//DTD SVG 1.1//EN" "http://www.w3.org/Graphics/SVG/1.1/DTD/svg11.dtd">
<svg version="1.1" id="图层_1" xmlns="http://www.w3.org/2000/svg" xmlns:xlink="http://www.w3.org/1999/xlink" x="0px" y="0px"
	 width="36px" height="36px" viewBox="0 0 36 36" enable-background="new 0 0 36 36" xml:space="preserve">
<circle fill="#6AC20B" cx="18" cy="18" r="18"/>
<ellipse fill="none" stroke="#FFFFFF" stroke-width="1" stroke-miterlimit="10" cx="18.358" cy="14.659" rx="9.125" ry="6"/>
<path fill="none" stroke="#FFFFFF" stroke-width="1" stroke-miterlimit="10" d="M18.358,12"/>
<path fill="none" stroke="#FFFFFF" stroke-width="1" stroke-miterlimit="10" d="M9.259,17.545
	C9.242,17.695,9.233,17.847,9.233,18c0,3.313,4.085,6,9.125,6c5.041,0,9.125-2.688,9.125-6"/>
<path fill="none" stroke="#FFFFFF" stroke-width="1" stroke-miterlimit="10" d="M9.259,17.545"/>
<path fill="none" stroke="#FFFFFF" stroke-width="1" stroke-miterlimit="10" d="M9.31,17.216"/>
<path fill="none" stroke="#FFFFFF" stroke-width="1" stroke-miterlimit="10" d="M14.669,12.51"/>
<path fill="none" stroke="#FFFFFF" stroke-width="1" stroke-miterlimit="10" d="M15.721,12.254"/>
<path fill="none" stroke="#FFFFFF" stroke-width="1" stroke-miterlimit="10" d="M16.916,12.074"/>
<path fill="none" stroke="#FFFFFF" stroke-width="1" stroke-miterlimit="10" d="M10.107,18.299"/>
<path fill="none" stroke="#FFFFFF" stroke-width="1" stroke-miterlimit="10" d="M19.92,14.953"/>
<path fill="none" stroke="#FFFFFF" stroke-width="1" stroke-miterlimit="10" d="M20.977,15.116"/>
<path fill="none" stroke="#FFFFFF" stroke-width="1" stroke-miterlimit="10" d="M22.047,15.376"/>
<path fill="none" stroke="#FFFFFF" stroke-width="1" stroke-miterlimit="10" d="M22.047,15.376"/>
<path fill="none" stroke="#FFFFFF" stroke-width="1" stroke-miterlimit="10" d="M22.78,15.616"/>
<path fill="none" stroke="#FFFFFF" stroke-width="1" stroke-miterlimit="10" d="M24.287,16.305"/>
<path fill="none" stroke="#FFFFFF" stroke-width="1" stroke-miterlimit="10" d="M27.08,19.099"/>
<path fill="none" stroke="#FFFFFF" stroke-width="1" stroke-miterlimit="10" d="M27.448,20.34"/>
<path fill="none" stroke="#FFFFFF" stroke-width="1" stroke-miterlimit="10" d="M27.448,20.34"/>
<path fill="none" stroke="#FFFFFF" stroke-width="1" stroke-miterlimit="10" d="M9.233,20.865c0,3.313,4.085,6.001,9.125,6.001
	c5.041,0,9.125-2.688,9.125-6.001"/>
<path fill="none" stroke="#FFFFFF" stroke-width="1" stroke-miterlimit="10" d="M9.233,20.865"/>
<path fill="none" stroke="#FFFFFF" stroke-width="1" stroke-miterlimit="10" d="M10.107,18.299"/>
<line fill="none" stroke="#FFFFFF" stroke-width="1" stroke-miterlimit="10" x1="9.233" y1="14.659" x2="9.233" y2="21.292"/>
<line fill="none" stroke="#FFFFFF" stroke-width="1" stroke-miterlimit="10" x1="27.482" y1="14.659" x2="27.482" y2="21.292"/>
</svg>
