<?xml version="1.0" standalone="no"?><!DOCTYPE svg PUBLIC "-//W3C//DTD SVG 1.1//EN" "http://www.w3.org/Graphics/SVG/1.1/DTD/svg11.dtd"><svg t="1498217146590" class="icon" style="" viewBox="0 0 1024 1024" version="1.1" xmlns="http://www.w3.org/2000/svg" p-id="2346" xmlns:xlink="http://www.w3.org/1999/xlink" width="20" height="20"><defs><style type="text/css"></style></defs><path d="M517.130857 27.985378c-1.921769 0-3.337002-0.106424-5.226025-0.057305-1.577938-0.024559-3.566222 0.073678-5.152347 0.073678-155.225317 0-281.025465 121.318066-281.025465 267.408329 0 146.123009 286.283212 713.856357 286.283212 713.856357s286.161439-568.232722 286.161439-713.880917C798.171672 149.744489 672.347988 27.985378 517.130857 27.985378zM511.282662 394.343323c-71.094198 0-128.744199-54.835909-128.744199-122.479519 0-67.635423 57.648978-122.495892 128.744199-122.495892 71.110571 0 128.752386 54.860469 128.752386 122.495892C640.035048 339.507414 582.394257 394.343323 511.282662 394.343323z" p-id="2347" fill="#e6e6e6"></path></svg>