<?xml version="1.0" encoding="utf-8"?>
<!-- Generator: Adobe Illustrator 16.0.0, SVG Export Plug-In . SVG Version: 6.00 Build 0)  -->
<!DOCTYPE svg PUBLIC "-//W3C//DTD SVG 1.1//EN" "http://www.w3.org/Graphics/SVG/1.1/DTD/svg11.dtd">
<svg version="1.1" id="图层_1" xmlns="http://www.w3.org/2000/svg" xmlns:xlink="http://www.w3.org/1999/xlink" x="0px" y="0px"
	 width="20px" height="20px" viewBox="0 0 20 20" enable-background="new 0 0 20 20" xml:space="preserve">
<path fill="#FFC636" d="M10.247,5.879c0.599-0.123,1.058-0.632,1.058-1.265c0-0.721-0.582-1.301-1.305-1.301
	s-1.304,0.58-1.304,1.301c0,0.598,0.405,1.09,0.952,1.248l-3.173,5.554L2.932,8.323c0.317-0.193,0.529-0.527,0.529-0.914
	c0-0.597-0.494-1.072-1.093-1.072c-0.599,0-1.092,0.475-1.092,1.072c0,0.598,0.493,1.072,1.092,1.072c0.159,0,0.3-0.035,0.441-0.087
	l1.791,7.208H15.4l2.02-7.121l-3.507,2.988L10.247,5.879z M17.633,6.337c-0.6,0-1.094,0.475-1.094,1.072
	c0,0.598,0.494,1.072,1.094,1.072c0.599,0,1.092-0.475,1.092-1.072C18.725,6.812,18.231,6.337,17.633,6.337z M15.09,16.019H4.911
	c-0.172,0-0.312,0.14-0.312,0.313v0.207c0,0.174,0.139,0.313,0.312,0.313H15.09c0.172,0,0.311-0.139,0.311-0.313v-0.207
	C15.4,16.158,15.262,16.019,15.09,16.019z"/>
</svg>
