<?xml version="1.0" standalone="no"?><!DOCTYPE svg PUBLIC "-//W3C//DTD SVG 1.1//EN" "http://www.w3.org/Graphics/SVG/1.1/DTD/svg11.dtd"><svg t="1496131207302" class="icon" style="" viewBox="0 0 1024 1024" version="1.1" xmlns="http://www.w3.org/2000/svg" p-id="2244" xmlns:xlink="http://www.w3.org/1999/xlink" width="30" height="30"><defs><style type="text/css"></style></defs><path d="M534.144 964.032c-17.664 0-32-14.336-32-32s14.336-32 32-32c213.952 0 388.032-174.08 388.032-388.032s-174.08-388.032-388.032-388.032S146.112 298.048 146.112 512c0 17.664-14.336 32-32 32s-32-14.336-32-32c0-249.216 202.752-452.032 452.032-452.032 249.28 0 452.032 202.752 452.032 452.032C986.112 761.28 783.36 964.032 534.144 964.032z" p-id="2245" fill="#e6e6e6"></path><path d="M16.128 512 212.096 512 114.112 689.984Z" p-id="2246" fill="#e6e6e6"></path></svg>