<?xml version="1.0" standalone="no"?><!DOCTYPE svg PUBLIC "-//W3C//DTD SVG 1.1//EN" "http://www.w3.org/Graphics/SVG/1.1/DTD/svg11.dtd"><svg t="1496131178500" class="icon" style="" viewBox="0 0 1024 1024" version="1.1" xmlns="http://www.w3.org/2000/svg" p-id="2072" xmlns:xlink="http://www.w3.org/1999/xlink" width="30" height="30"><defs><style type="text/css"></style></defs><path d="M884.363636 186.181818l0 135.400727C815.057455 186.088727 674.629818 93.090909 512 93.090909c-231.377455 0-418.909091 187.531636-418.909091 418.909091 0 231.377455 187.531636 418.909091 418.909091 418.909091 190.976 0 351.744-127.906909 402.199273-302.638545l-48.593455 0C816.733091 776.936727 677.003636 884.363636 512 884.363636c-205.637818 0-372.363636-166.725818-372.363636-372.363636 0-205.637818 166.725818-372.363636 372.363636-372.363636 156.020364 0 288.395636 96.581818 343.784727 232.727273L698.181818 372.363636l0 46.545455 186.181818 0 46.545455 0L930.909091 372.363636 930.909091 186.181818 884.363636 186.181818z" p-id="2073" fill="#e6e6e6"></path></svg>