<?xml version="1.0" encoding="utf-8"?>
<!-- Generator: Adobe Illustrator 16.0.0, SVG Export Plug-In . SVG Version: 6.00 Build 0)  -->
<!DOCTYPE svg PUBLIC "-//W3C//DTD SVG 1.1//EN" "http://www.w3.org/Graphics/SVG/1.1/DTD/svg11.dtd">
<svg version="1.1" id="图层_1" xmlns="http://www.w3.org/2000/svg" xmlns:xlink="http://www.w3.org/1999/xlink" x="0px" y="0px"
	 width="16px" height="16px" viewBox="0 0 16 16" enable-background="new 0 0 16 16" xml:space="preserve">

<path fill="#efefef" d="M12.083,4.452l-0.229-0.1c1.244-2.861,2.218-4.179,2.999-4.021c1.153,0.231,1.234,3.677,1.24,4.069
	l-0.25,0.004c-0.015-1.01-0.229-3.665-1.039-3.828C14.451,0.5,13.623,0.914,12.083,4.452z"/>
<polyline fill="#efefef" points="6.1,6.583 6.1,13 10.167,9.792 6.417,6.583 "/>
<polygon fill="#efefef" points="16.1,16.125 -0.025,16.125 -0.025,4.437 0.225,4.437 0.225,15.877 15.85,15.877 15.85,4.385 
	16.1,4.385 "/>
<path fill="#efefef" d="M3.985,4.49l0.229-0.1C2.97,1.529,1.996,0.211,1.215,0.369C0.062,0.601-0.02,4.046-0.025,4.438l0.25,0.004
	c0.015-1.01,0.229-3.665,1.039-3.828C1.617,0.537,2.445,0.951,3.985,4.49z"/>
<path fill="efefef" d="M4.13,4.402"/>
<rect x="4.041" y="4.152" fill="#efefef" width="8.067" height="0.25"/>
</svg>
